<svg width="52" height="52" viewBox="0 0 52 52" fill="none" xmlns="http://www.w3.org/2000/svg">
<path fill-rule="evenodd" clip-rule="evenodd" d="M23.1525 16.0945C23.2576 16.1995 23.3292 16.3335 23.358 16.4793C23.3868 16.6251 23.3717 16.7763 23.3145 16.9135C22.8573 18.0107 22.6228 19.1878 22.6245 20.3765C22.6245 22.7634 23.5727 25.0526 25.2606 26.7404C26.9484 28.4282 29.2376 29.3765 31.6245 29.3765C32.8132 29.3782 33.9903 29.1436 35.0875 28.6865C35.2246 28.6294 35.3756 28.6142 35.5213 28.643C35.667 28.6718 35.8009 28.7432 35.9059 28.8482C36.011 28.9532 36.0825 29.087 36.1115 29.2326C36.1404 29.3783 36.1255 29.5293 36.0685 29.6665C35.2705 31.5797 33.9242 33.214 32.1992 34.3636C30.4741 35.5131 28.4475 36.1265 26.3745 36.1265C20.5755 36.1265 15.8745 31.4255 15.8745 25.6265C15.8745 21.2585 18.5415 17.5145 22.3345 15.9325C22.4716 15.8755 22.6225 15.8605 22.7681 15.8893C22.9137 15.9181 23.0475 15.9895 23.1525 16.0945Z" fill="white" fill-opacity="0.9"/>
</svg>
